<svg xmlns="http://www.w3.org/2000/svg" viewBox="0 0 24 24" fill="currentColor"><path d="M21.395 15.035a39.548 39.548 0 0 0-1.308-3.259c.108-.465.199-.945.271-1.435.074-.5.11-1.065.11-1.7C20.468 5.48 17.45 2 12 2S3.532 5.48 3.532 8.64c0 .635.036 1.2.11 1.7.072.49.163.97.271 1.435a39.548 39.548 0 0 0-1.308 3.259c-.325.885-.495 1.665-.54 2.325-.048.72.108 1.32.468 1.785.36.465.93.735 1.68.81.024.005.048.01.072.015.225.045.465.075.72.09a5.438 5.438 0 0 0 1.53.225c.27 0 .54-.03.81-.075a3.978 3.978 0 0 0 1.62-.57 3.67 3.67 0 0 0 1.125-.915c.285-.375.495-.78.63-1.215a4.47 4.47 0 0 1 1.62.915 3.67 3.67 0 0 0 1.125.915c.495.3.99.45 1.62.57.27.045.54.075.81.075a5.438 5.438 0 0 0 1.53-.225c.255-.015.495-.045.72-.09.024-.005.048-.01.072-.015.75-.075 1.32-.345 1.68-.81.36-.465.516-1.065.468-1.785-.045-.66-.215-1.44-.54-2.325z"/></svg>
